<?xml version="1.0" encoding="UTF-8" standalone="no"?>
<svg
   xmlns:dc="http://purl.org/dc/elements/1.1/"
   xmlns:cc="http://creativecommons.org/ns#"
   xmlns:rdf="http://www.w3.org/1999/02/22-rdf-syntax-ns#"
   xmlns:svg="http://www.w3.org/2000/svg"
   xmlns="http://www.w3.org/2000/svg"
   xmlns:sodipodi="http://sodipodi.sourceforge.net/DTD/sodipodi-0.dtd"
   xmlns:inkscape="http://www.inkscape.org/namespaces/inkscape"
   height="24"
   version="1.1"
   width="24"
   id="svg10"
   sodipodi:docname="file-download.svg"
   inkscape:version="1.0.2-2 (e86c870879, 2021-01-15)">
  <metadata
     id="metadata16">
    <rdf:RDF>
      <cc:Work
         rdf:about="">
        <dc:format>image/svg+xml</dc:format>
        <dc:type
           rdf:resource="http://purl.org/dc/dcmitype/StillImage" />
        <dc:title></dc:title>
      </cc:Work>
    </rdf:RDF>
  </metadata>
  <defs
     id="defs14" />
  <sodipodi:namedview
     pagecolor="#ffffff"
     bordercolor="#666666"
     borderopacity="1"
     objecttolerance="10"
     gridtolerance="10"
     guidetolerance="10"
     inkscape:pageopacity="0"
     inkscape:pageshadow="2"
     inkscape:window-width="1920"
     inkscape:window-height="991"
     id="namedview12"
     showgrid="false"
     inkscape:zoom="21.655145"
     inkscape:cx="6.0630502"
     inkscape:cy="12.233553"
     inkscape:window-x="-9"
     inkscape:window-y="-9"
     inkscape:window-maximized="1"
     inkscape:current-layer="svg10"
     inkscape:snap-bbox="true"
     inkscape:snap-bbox-edge-midpoints="true"
     inkscape:snap-bbox-midpoints="true"
     inkscape:document-rotation="0" />
  <g
     transform="translate(0 -1028.4)"
     id="g8">
    <path
       d="m5 1030.4c-1.1046 0-2 0.9-2 2v8 4 6c0 1.1 0.8954 2 2 2h14c1.105 0 2-0.9 2-2v-6-4-4l-6-6h-10z"
       fill="#95a5a6"
       id="path2" />
    <path
       d="m5 1029.4c-1.1046 0-2 0.9-2 2v8 4 6c0 1.1 0.8954 2 2 2h14c1.105 0 2-0.9 2-2v-6-4-4l-6-6h-10z"
       fill="#bdc3c7"
       id="path4" />
    <path
       d="m21 1035.4-6-6v4c0 1.1 0.895 2 2 2h4z"
       fill="#95a5a6"
       id="path6" />
  </g>
  <style
     type="text/css"
     id="style2">
	.st0{fill:#2BB673;}
	.st1{fill:none;stroke:#FFFFFF;stroke-width:30;stroke-miterlimit:10;}
</style>
  <g
     id="g847"
     transform="matrix(0.01553419,0,0,0.01553419,8.0232474,8.0232474)"
     style="fill:#1f9978;fill-opacity:1">
    <g
       id="g841"
       style="fill:#1f9978;fill-opacity:1">
      <polygon
         points="224,160 224,144 96,144 96,448 416,448 416,144 288,144 288,160 400,160 400,432 112,432 112,160 "
         id="polygon839"
         style="fill:#1f9978;fill-opacity:1" />
    </g>
    <g
       id="g845"
       style="fill:#1f9978;fill-opacity:1">
      <polygon
         points="264.2,64 247.8,64 247.8,307 193.1,252.3 181.5,263.9 256,338.4 330.5,263.9 318.9,252.3 264.2,307 "
         id="polygon843"
         style="fill:#1f9978;fill-opacity:1" />
    </g>
  </g>
</svg>
