<?xml version="1.0" encoding="UTF-8" standalone="no"?>
<svg
   xmlns:dc="http://purl.org/dc/elements/1.1/"
   xmlns:cc="http://creativecommons.org/ns#"
   xmlns:rdf="http://www.w3.org/1999/02/22-rdf-syntax-ns#"
   xmlns:svg="http://www.w3.org/2000/svg"
   xmlns="http://www.w3.org/2000/svg"
   xmlns:sodipodi="http://sodipodi.sourceforge.net/DTD/sodipodi-0.dtd"
   xmlns:inkscape="http://www.inkscape.org/namespaces/inkscape"
   height="24"
   version="1.1"
   width="24"
   id="svg10"
   sodipodi:docname="file-center-complete.svg"
   inkscape:version="1.0.2-2 (e86c870879, 2021-01-15)">
  <metadata
     id="metadata16">
    <rdf:RDF>
      <cc:Work
         rdf:about="">
        <dc:format>image/svg+xml</dc:format>
        <dc:type
           rdf:resource="http://purl.org/dc/dcmitype/StillImage" />
        <dc:title></dc:title>
      </cc:Work>
    </rdf:RDF>
  </metadata>
  <defs
     id="defs14" />
  <sodipodi:namedview
     pagecolor="#ffffff"
     bordercolor="#666666"
     borderopacity="1"
     objecttolerance="10"
     gridtolerance="10"
     guidetolerance="10"
     inkscape:pageopacity="0"
     inkscape:pageshadow="2"
     inkscape:window-width="1920"
     inkscape:window-height="991"
     id="namedview12"
     showgrid="false"
     inkscape:zoom="15.3125"
     inkscape:cx="5.8457171"
     inkscape:cy="9.5006174"
     inkscape:window-x="-9"
     inkscape:window-y="-9"
     inkscape:window-maximized="1"
     inkscape:current-layer="g8"
     inkscape:snap-bbox="true"
     inkscape:snap-bbox-edge-midpoints="true"
     inkscape:snap-bbox-midpoints="true" />
  <g
     transform="translate(0 -1028.4)"
     id="g8">
    <path
       d="m5 1030.4c-1.1046 0-2 0.9-2 2v8 4 6c0 1.1 0.8954 2 2 2h14c1.105 0 2-0.9 2-2v-6-4-4l-6-6h-10z"
       fill="#95a5a6"
       id="path2" />
    <path
       d="m5 1029.4c-1.1046 0-2 0.9-2 2v8 4 6c0 1.1 0.8954 2 2 2h14c1.105 0 2-0.9 2-2v-6-4-4l-6-6h-10z"
       fill="#bdc3c7"
       id="path4" />
    <path
       d="m21 1035.4-6-6v4c0 1.1 0.895 2 2 2h4z"
       fill="#95a5a6"
       id="path6" />
  </g>
  <style
     type="text/css"
     id="style2">
	.st0{fill:#2BB673;}
	.st1{fill:none;stroke:#FFFFFF;stroke-width:30;stroke-miterlimit:10;}
</style>
  <g
     id="g867"
     transform="matrix(0.01368136,0,0,0.01368136,8.4975718,9.4975718)">
    <path
       class="st0"
       d="m 489,255.9 c 0,-0.2 0,-0.5 0,-0.7 0,-1.6 0,-3.2 -0.1,-4.7 0,-0.9 -0.1,-1.8 -0.1,-2.8 0,-0.9 -0.1,-1.8 -0.1,-2.7 -0.1,-1.1 -0.1,-2.2 -0.2,-3.3 0,-0.7 -0.1,-1.4 -0.1,-2.1 -0.1,-1.2 -0.2,-2.4 -0.3,-3.6 0,-0.5 -0.1,-1.1 -0.1,-1.6 -0.1,-1.3 -0.3,-2.6 -0.4,-4 0,-0.3 -0.1,-0.7 -0.1,-1 C 474.3,113.2 375.7,22.9 256,22.9 136.3,22.9 37.7,113.2 24.5,229.5 c 0,0.3 -0.1,0.7 -0.1,1 -0.1,1.3 -0.3,2.6 -0.4,4 -0.1,0.5 -0.1,1.1 -0.1,1.6 -0.1,1.2 -0.2,2.4 -0.3,3.6 0,0.7 -0.1,1.4 -0.1,2.1 -0.1,1.1 -0.1,2.2 -0.2,3.3 0,0.9 -0.1,1.8 -0.1,2.7 0,0.9 -0.1,1.8 -0.1,2.8 0,1.6 -0.1,3.2 -0.1,4.7 0,0.2 0,0.5 0,0.7 0,0 0,0 0,0.1 0,0.1 0,0 0,0.1 0,0.2 0,0.5 0,0.7 0,1.6 0,3.2 0.1,4.7 0,0.9 0.1,1.8 0.1,2.8 0,0.9 0.1,1.8 0.1,2.7 0.1,1.1 0.1,2.2 0.2,3.3 0,0.7 0.1,1.4 0.1,2.1 0.1,1.2 0.2,2.4 0.3,3.6 0,0.5 0.1,1.1 0.1,1.6 0.1,1.3 0.3,2.6 0.4,4 0,0.3 0.1,0.7 0.1,1 13.2,116.1 111.8,206.4 231.5,206.4 119.7,0 218.3,-90.3 231.5,-206.5 0,-0.3 0.1,-0.7 0.1,-1 0.1,-1.3 0.3,-2.6 0.4,-4 0.1,-0.5 0.1,-1.1 0.1,-1.6 0.1,-1.2 0.2,-2.4 0.3,-3.6 0,-0.7 0.1,-1.4 0.1,-2.1 0.1,-1.1 0.1,-2.2 0.2,-3.3 0,-0.9 0.1,-1.8 0.1,-2.7 0,-0.9 0.1,-1.8 0.1,-2.8 0,-1.6 0.1,-3.2 0.1,-4.7 0,-0.2 0,-0.5 0,-0.7 0,-0.1 0,-0.1 0,-0.2 0,0.1 0,0.1 0,0 z"
       id="XMLID_3_"
       style="fill:#f37368;fill-opacity:1" />
    <g
       id="XMLID_1_">
      <line
         class="st1"
         id="XMLID_2_"
         x1="213.60001"
         x2="369.70001"
         y1="344.20001"
         y2="188.2" />
      <line
         class="st1"
         id="XMLID_4_"
         x1="233.8"
         x2="154.7"
         y1="345.20001"
         y2="266.10001" />
    </g>
  </g>
</svg>
