<?xml version="1.0" encoding="UTF-8" standalone="no"?>
<svg
   xmlns:dc="http://purl.org/dc/elements/1.1/"
   xmlns:cc="http://creativecommons.org/ns#"
   xmlns:rdf="http://www.w3.org/1999/02/22-rdf-syntax-ns#"
   xmlns:svg="http://www.w3.org/2000/svg"
   xmlns="http://www.w3.org/2000/svg"
   xmlns:sodipodi="http://sodipodi.sourceforge.net/DTD/sodipodi-0.dtd"
   xmlns:inkscape="http://www.inkscape.org/namespaces/inkscape"
   width="550"
   height="140"
   viewBox="0 0 145.52083 37.041668"
   version="1.1"
   id="svg8"
   inkscape:export-filename="M:\Engineering\Summer of 2022\Projects\file-sharing-app\public\assets\logo.png"
   inkscape:export-xdpi="96"
   inkscape:export-ydpi="96"
   inkscape:version="1.0.2-2 (e86c870879, 2021-01-15)"
   sodipodi:docname="logo.svg">
  <defs
     id="defs2" />
  <sodipodi:namedview
     id="base"
     pagecolor="#ffffff"
     bordercolor="#666666"
     borderopacity="1.0"
     inkscape:pageopacity="0.0"
     inkscape:pageshadow="2"
     inkscape:zoom="1.979899"
     inkscape:cx="323.54442"
     inkscape:cy="86.925411"
     inkscape:document-units="px"
     inkscape:current-layer="layer1"
     inkscape:document-rotation="0"
     showgrid="false"
     units="px"
     inkscape:snap-bbox="true"
     inkscape:snap-page="false"
     inkscape:snap-bbox-midpoints="true"
     inkscape:snap-bbox-edge-midpoints="true"
     inkscape:snap-object-midpoints="true"
     inkscape:window-width="1920"
     inkscape:window-height="991"
     inkscape:window-x="-9"
     inkscape:window-y="-9"
     inkscape:window-maximized="1"
     inkscape:bbox-paths="false"
     inkscape:bbox-nodes="true" />
  <metadata
     id="metadata5">
    <rdf:RDF>
      <cc:Work
         rdf:about="">
        <dc:format>image/svg+xml</dc:format>
        <dc:type
           rdf:resource="http://purl.org/dc/dcmitype/StillImage" />
        <dc:title />
      </cc:Work>
    </rdf:RDF>
  </metadata>
  <g
     inkscape:label="Layer 1"
     inkscape:groupmode="layer"
     id="layer1">
    <g
       aria-label="EASEFILES"
       id="text835"
       style="font-size:19.7556px;line-height:1.25;font-family:Cambay;-inkscape-font-specification:Cambay;stroke-width:0.264583">
      <path
         d="M 17.3757,3.5545934 H 4.2382261 v 4.148676 H 17.3757 Z m 0,6.8947046 H 4.2382261 v 4.12892 H 17.3757 Z m 0,6.855193 H 4.2382261 v 4.148676 H 17.3757 Z"
         style="font-style:normal;font-variant:normal;font-weight:900;font-stretch:normal;font-family:Noir;-inkscape-font-specification:'Noir Heavy';fill:#101010;fill-opacity:1"
         id="path836" />
      <path
         d="m 24.645732,21.453167 4.820366,-9.225865 4.780855,9.225865 h 5.077189 L 29.308053,2.6458358 19.588298,21.453167 Z"
         style="font-style:normal;font-variant:normal;font-weight:900;font-stretch:normal;font-family:Noir;-inkscape-font-specification:'Noir Heavy';fill:#101010;fill-opacity:1"
         id="path838" />
      <path
         d="m 44.75687,3.5545934 q -1.837271,0 -3.160896,0.8494908 -1.323625,0.8297352 -2.015071,2.1138492 -0.671691,1.2643584 -0.671691,2.5287168 0,1.0668028 0.414868,2.0743378 0.414867,0.98778 1.244603,1.79776 0.790224,0.770468 1.857026,1.224847 1.066802,0.434623 2.331161,0.434623 h 4.267209 q 0.237068,0 0.414868,0.09878 0.197556,0.07902 0.414868,0.276579 0.454378,0.454378 0.454378,0.98778 0,0.553156 -0.375356,0.968024 -0.355601,0.395112 -0.908758,0.395112 l -5.966191,-0.05927 v 4.207943 h 5.966191 q 1.837271,0 3.160896,-0.829735 1.343381,-0.849491 2.015072,-2.133605 0.691446,-1.284114 0.691446,-2.548472 0,-1.047047 -0.434624,-2.034827 -0.414867,-1.007536 -1.244602,-1.817515 -1.698982,-1.639715 -4.188188,-1.639715 H 44.75687 q -0.553157,0 -0.908758,-0.414868 -0.355601,-0.4148674 -0.355601,-0.9877798 0,-0.5729124 0.335846,-0.9482688 0.3556,-0.395112 0.928513,-0.395112 h 5.156211 l -0.03951,-4.148676 z"
         style="font-style:normal;font-variant:normal;font-weight:900;font-stretch:normal;font-family:Noir;-inkscape-font-specification:'Noir Heavy';fill:#101010;fill-opacity:1"
         id="path840" />
      <path
         d="M 70.241583,3.5545934 H 57.104109 v 4.148676 h 13.137474 z m 0,6.8947046 H 57.104109 v 4.12892 h 13.137474 z m 0,6.855193 H 57.104109 v 4.148676 h 13.137474 z"
         style="font-style:normal;font-variant:normal;font-weight:900;font-stretch:normal;font-family:Noir;-inkscape-font-specification:'Noir Heavy';fill:#101010;fill-opacity:1"
         id="path842" />
      <path
         d="M 85.591658,3.5545934 H 72.454184 v 4.148676 h 13.137474 z m 0,8.2380856 H 72.454184 v 9.660488 h 4.583299 V 15.96111 h 8.554175 z"
         style="font-style:normal;font-variant:normal;font-weight:900;font-stretch:normal;font-family:Noir;-inkscape-font-specification:'Noir Heavy';fill:#f37368;fill-opacity:1"
         id="path844" />
      <path
         d="M 92.38755,21.453167 V 3.5545934 H 87.804251 V 21.453167 Z"
         style="font-style:normal;font-variant:normal;font-weight:900;font-stretch:normal;font-family:Noir;-inkscape-font-specification:'Noir Heavy';fill:#f37368;fill-opacity:1"
         id="path846" />
      <path
         d="M 99.183479,17.304491 V 3.5545934 H 94.60018 V 21.453167 h 13.13747 v -4.148676 z"
         style="font-style:normal;font-variant:normal;font-weight:900;font-stretch:normal;font-family:Noir;-inkscape-font-specification:'Noir Heavy';fill:#f37368;fill-opacity:1"
         id="path848" />
      <path
         d="m 123.08772,3.5545934 h -13.13747 v 4.148676 h 13.13747 z m 0,6.8947046 h -13.13747 v 4.12892 h 13.13747 z m 0,6.855193 h -13.13747 v 4.148676 h 13.13747 z"
         style="font-style:normal;font-variant:normal;font-weight:900;font-stretch:normal;font-family:Noir;-inkscape-font-specification:'Noir Heavy';fill:#f37368;fill-opacity:1"
         id="path850" />
      <path
         d="m 131.14798,3.5545934 q -1.83727,0 -3.1609,0.8494908 -1.32362,0.8297352 -2.01507,2.1138492 -0.67169,1.2643584 -0.67169,2.5287168 0,1.0668028 0.41487,2.0743378 0.41487,0.98778 1.2446,1.79776 0.79023,0.770468 1.85703,1.224847 1.0668,0.434623 2.33116,0.434623 h 4.26721 q 0.23707,0 0.41487,0.09878 0.19755,0.07902 0.41486,0.276579 0.45438,0.454378 0.45438,0.98778 0,0.553156 -0.37535,0.968024 -0.3556,0.395112 -0.90876,0.395112 l -5.96619,-0.05927 v 4.207943 h 5.96619 q 1.83727,0 3.16089,-0.829735 1.34339,-0.849491 2.01508,-2.133605 0.69144,-1.284114 0.69144,-2.548472 0,-1.047047 -0.43462,-2.034827 -0.41487,-1.007536 -1.2446,-1.817515 -1.69899,-1.639715 -4.18819,-1.639715 h -4.26721 q -0.55316,0 -0.90876,-0.414868 -0.3556,-0.4148674 -0.3556,-0.9877798 0,-0.5729124 0.33585,-0.9482688 0.3556,-0.395112 0.92851,-0.395112 h 5.15621 l -0.0395,-4.148676 z"
         style="font-style:normal;font-variant:normal;font-weight:900;font-stretch:normal;font-family:Noir;-inkscape-font-specification:'Noir Heavy';fill:#f37368;fill-opacity:1"
         id="path852" />
    </g>
    <g
       aria-label="sharing made easy"
       id="text836"
       style="font-size:11.2889px;line-height:1.25;font-family:Cambay;-inkscape-font-specification:Cambay;stroke-width:0.264583">
      <path
         d="m 6.5750287,32.430212 q -1.467557,0 -2.3593801,-0.857956 L 4.8252492,30.60141 q 0.8240897,0.666045 1.6820461,0.666045 0.3725337,0 0.6208896,-0.146755 0.2596447,-0.146756 0.2596447,-0.406401 0,-0.09031 -0.033867,-0.169333 -0.033867,-0.07902 -0.112889,-0.146756 -0.067733,-0.06773 -0.1354668,-0.112889 -0.067734,-0.04516 -0.2032003,-0.1016 -0.1354668,-0.05645 -0.225778,-0.07902 -0.079022,-0.03387 -0.2596447,-0.09031 -0.1693335,-0.05644 -0.2483558,-0.07902 -0.790223,-0.270934 -1.2192012,-0.632178 -0.4176893,-0.361245 -0.4176893,-1.016001 0,-0.835379 0.6321784,-1.298224 0.6434673,-0.474134 1.6481794,-0.474134 1.2192013,0 2.1223133,0.654756 L 8.3473861,28.129141 Q 7.568452,27.655007 6.879829,27.655007 q -0.3725337,0 -0.5983117,0.146756 -0.225778,0.135467 -0.225778,0.361245 0,0.180622 0.1693335,0.327378 0.1693335,0.135467 0.3048003,0.191911 0.1467557,0.04516 0.5192894,0.169334 0.3838227,0.124177 0.5644451,0.191911 0.1919113,0.06773 0.5080005,0.237067 0.3160892,0.158044 0.4628449,0.327378 0.1580446,0.158045 0.2822225,0.428978 0.1241779,0.259645 0.1241779,0.587023 0,0.846667 -0.6999118,1.33209 -0.6999118,0.474134 -1.7159129,0.474134 z"
         style="font-style:normal;font-variant:normal;font-weight:normal;font-stretch:normal;font-size:11.2889px;font-family:'Intelo Alt';-inkscape-font-specification:'Intelo Alt';stroke-width:0.264583"
         id="path855" />
      <path
         d="m 13.517685,26.514828 q 0.869245,0 1.354668,0.485423 0.496712,0.474134 0.496712,1.365957 v 3.939826 h -1.557869 v -3.578581 q 0,-0.485423 -0.180622,-0.711201 -0.180622,-0.225778 -0.575734,-0.225778 -0.677334,0 -1.444979,0.587023 v 3.928537 h -1.580446 v -8.060275 h 1.580446 v 2.923825 q 0.936979,-0.654756 1.907824,-0.654756 z"
         style="font-style:normal;font-variant:normal;font-weight:normal;font-stretch:normal;font-size:11.2889px;font-family:'Intelo Alt';-inkscape-font-specification:'Intelo Alt';stroke-width:0.264583"
         id="path857" />
      <path
         d="m 18.981499,26.514828 q 1.140179,0 1.817513,0.62089 0.677334,0.6096 0.677334,1.727201 v 3.443115 h -1.354668 v -0.733778 q -0.643467,0.869245 -1.828801,0.869245 -0.869246,0 -1.411113,-0.474134 -0.530578,-0.485423 -0.530578,-1.275646 0,-0.970845 0.778934,-1.411112 0.778934,-0.451556 1.975557,-0.451556 0.508001,0 0.959557,0.06773 v -0.07902 q 0,-0.530578 -0.327378,-0.801512 -0.327378,-0.282223 -0.869246,-0.282223 -0.880534,0 -1.715912,0.643468 L 16.497941,27.41794 q 0.959557,-0.903112 2.483558,-0.903112 z m -0.316089,4.786494 q 0.609601,0 0.982135,-0.417689 0.372533,-0.41769 0.417689,-1.083735 -0.440267,-0.03387 -0.846668,-0.03387 -1.343379,0 -1.343379,0.824089 0,0.316089 0.214489,0.51929 0.214489,0.191911 0.575734,0.191911 z"
         style="font-style:normal;font-variant:normal;font-weight:normal;font-stretch:normal;font-size:11.2889px;font-family:'Intelo Alt';-inkscape-font-specification:'Intelo Alt';stroke-width:0.264583"
         id="path859" />
      <path
         d="m 25.969317,26.514828 q 0.508,0 0.857956,0.2032 l -0.316089,1.219202 q -0.395112,-0.124178 -0.688623,-0.124178 -0.812801,0 -1.490135,0.632178 v 3.860804 h -1.557868 v -5.64445 h 1.501424 v 0.654756 q 0.767645,-0.801512 1.693335,-0.801512 z"
         style="font-style:normal;font-variant:normal;font-weight:normal;font-stretch:normal;font-size:11.2889px;font-family:'Intelo Alt';-inkscape-font-specification:'Intelo Alt';stroke-width:0.264583"
         id="path861" />
      <path
         d="m 28.927002,25.735894 q -0.248356,0.248356 -0.666045,0.248356 -0.417689,0 -0.666045,-0.248356 -0.237067,-0.248356 -0.237067,-0.677334 0,-0.428978 0.237067,-0.677334 0.248356,-0.248356 0.666045,-0.248356 0.417689,0 0.666045,0.259645 0.248356,0.248356 0.248356,0.666045 0,0.417689 -0.248356,0.677334 z m -1.43369,6.57014 v -5.64445 h 1.524001 v 5.64445 z"
         style="font-style:normal;font-variant:normal;font-weight:normal;font-stretch:normal;font-size:11.2889px;font-family:'Intelo Alt';-inkscape-font-specification:'Intelo Alt';stroke-width:0.264583"
         id="path863" />
      <path
         d="m 33.871524,26.514828 q 0.869245,0 1.354668,0.485423 0.496712,0.474134 0.496712,1.365957 v 3.939826 h -1.557869 v -3.578581 q 0,-0.485423 -0.180622,-0.711201 -0.180622,-0.225778 -0.575734,-0.225778 -0.677334,0 -1.444979,0.587023 v 3.928537 h -1.580446 v -5.64445 h 1.456268 v 0.598312 q 0.993423,-0.745068 2.032002,-0.745068 z"
         style="font-style:normal;font-variant:normal;font-weight:normal;font-stretch:normal;font-size:11.2889px;font-family:'Intelo Alt';-inkscape-font-specification:'Intelo Alt';stroke-width:0.264583"
         id="path865" />
      <path
         d="m 42.405917,26.819629 q -0.282222,0.349955 -0.835378,0.654756 0.293511,0.428978 0.293511,1.016001 0,0.869245 -0.688623,1.388535 -0.677334,0.508 -1.840091,0.508 -0.440267,0 -0.857956,-0.09031 -0.214489,0.112889 -0.214489,0.316089 0,0.214489 0.225778,0.327378 0.225778,0.1016 0.733778,0.158045 1.591735,0.180622 2.043291,0.372533 0.970846,0.395112 0.970846,1.388535 0,0.92569 -0.778934,1.388535 -0.778934,0.474134 -2.178758,0.474134 -1.241779,0 -1.986846,-0.428978 -0.733779,-0.41769 -0.733779,-1.196624 0,-0.869245 0.92569,-1.241779 -0.496712,-0.349956 -0.496712,-0.92569 0,-0.6096 0.598312,-1.016001 -0.699912,-0.485423 -0.699912,-1.399823 0,-0.903112 0.677334,-1.433691 0.688623,-0.541867 1.817513,-0.541867 0.745068,0 1.309513,0.237067 0.575733,-0.259645 1.027289,-0.756356 z m -3.048003,2.506135 q 0.530579,0 0.835379,-0.214489 0.3048,-0.225778 0.3048,-0.632178 0,-0.406401 -0.3048,-0.632179 -0.293512,-0.225778 -0.82409,-0.225778 -0.530578,0 -0.835378,0.237067 -0.293512,0.225778 -0.293512,0.643468 0,0.824089 1.117601,0.824089 z m 1.433691,3.623737 q 0,-0.293511 -0.293512,-0.417689 -0.293511,-0.112889 -0.936979,-0.180622 -0.7112,-0.06773 -1.004712,-0.112889 -0.587022,0.282222 -0.587022,0.688623 0,0.7112 1.377245,0.7112 1.44498,0 1.44498,-0.688623 z"
         style="font-style:normal;font-variant:normal;font-weight:normal;font-stretch:normal;font-size:11.2889px;font-family:'Intelo Alt';-inkscape-font-specification:'Intelo Alt';stroke-width:0.264583"
         id="path867" />
      <path
         d="m 52.927141,26.514828 q 0.846668,0 1.34338,0.485423 0.496711,0.474134 0.496711,1.365957 v 3.939826 h -1.569157 v -3.601159 q 0,-0.462845 -0.169333,-0.688623 -0.158045,-0.225778 -0.564446,-0.225778 -0.745067,0 -1.43369,0.609601 v 3.905959 h -1.569157 v -3.601159 q 0,-0.462845 -0.169334,-0.688623 -0.169333,-0.225778 -0.575733,-0.225778 -0.688623,0 -1.433691,0.643467 v 3.872093 h -1.569157 v -5.64445 h 1.456268 v 0.711201 q 1.02729,-0.857957 2.077158,-0.857957 1.140179,0 1.569157,0.82409 1.004712,-0.82409 2.111024,-0.82409 z"
         style="font-style:normal;font-variant:normal;font-weight:normal;font-stretch:normal;font-size:11.2889px;font-family:'Intelo Alt';-inkscape-font-specification:'Intelo Alt';stroke-width:0.264583"
         id="path869" />
      <path
         d="m 58.390955,26.514828 q 1.140179,0 1.817513,0.62089 0.677334,0.6096 0.677334,1.727201 v 3.443115 h -1.354668 v -0.733778 q -0.643468,0.869245 -1.828802,0.869245 -0.869245,0 -1.411113,-0.474134 -0.530578,-0.485423 -0.530578,-1.275646 0,-0.970845 0.778934,-1.411112 0.778934,-0.451556 1.975558,-0.451556 0.508,0 0.959556,0.06773 v -0.07902 q 0,-0.530578 -0.327378,-0.801512 -0.327378,-0.282223 -0.869245,-0.282223 -0.880534,0 -1.715913,0.643468 L 55.907397,27.41794 q 0.959556,-0.903112 2.483558,-0.903112 z m -0.316089,4.786494 q 0.6096,0 0.982134,-0.417689 0.372534,-0.41769 0.417689,-1.083735 -0.440267,-0.03387 -0.846667,-0.03387 -1.343379,0 -1.343379,0.824089 0,0.316089 0.214489,0.51929 0.214489,0.191911 0.575734,0.191911 z"
         style="font-style:normal;font-variant:normal;font-weight:normal;font-stretch:normal;font-size:11.2889px;font-family:'Intelo Alt';-inkscape-font-specification:'Intelo Alt';stroke-width:0.264583"
         id="path871" />
      <path
         d="m 65.909353,24.245759 h 1.524002 v 8.060275 h -1.433691 v -0.496712 q -0.733778,0.643468 -1.682046,0.643468 -1.02729,0 -1.727202,-0.790223 -0.699911,-0.790223 -0.699911,-2.088447 0,-1.388535 0.767645,-2.223913 0.778934,-0.835379 1.95298,-0.835379 0.722489,0 1.298223,0.349956 z m -1.23049,6.942674 q 0.688623,0 1.23049,-0.553156 v -2.415825 q -0.508,-0.440267 -1.117601,-0.440267 -0.598312,0 -0.970846,0.462845 -0.361244,0.451556 -0.361244,1.309512 0,0.733779 0.316089,1.185335 0.316089,0.451556 0.903112,0.451556 z"
         style="font-style:normal;font-variant:normal;font-weight:normal;font-stretch:normal;font-size:11.2889px;font-family:'Intelo Alt';-inkscape-font-specification:'Intelo Alt';stroke-width:0.264583"
         id="path873" />
      <path
         d="m 71.418322,31.211011 q 0.891823,0 1.704624,-0.598312 l 0.62089,0.993423 q -1.061157,0.835379 -2.427114,0.835379 -1.298223,0 -2.065869,-0.801512 -0.767645,-0.812801 -0.767645,-2.077158 0,-1.275645 0.790223,-2.15618 0.790223,-0.891823 2.15618,-0.891823 0.993423,0 1.682046,0.530579 0.688623,0.519289 0.688623,1.43369 0,0.699912 -0.440267,1.162757 -0.428978,0.451556 -1.33209,0.451556 h -2.099736 q 0.237067,1.117601 1.490135,1.117601 z m 0,-3.533426 q -0.553156,0 -0.982134,0.361245 -0.428978,0.361245 -0.541867,1.016001 h 1.806224 q 0.338667,0 0.519289,-0.169334 0.191911,-0.169333 0.191911,-0.451556 0,-0.316089 -0.282222,-0.530578 -0.270934,-0.225778 -0.711201,-0.225778 z"
         style="font-style:normal;font-variant:normal;font-weight:normal;font-stretch:normal;font-size:11.2889px;font-family:'Intelo Alt';-inkscape-font-specification:'Intelo Alt';stroke-width:0.264583"
         id="path875" />
      <path
         d="m 80.031718,31.211011 q 0.891823,0 1.704624,-0.598312 l 0.620889,0.993423 q -1.061156,0.835379 -2.427113,0.835379 -1.298224,0 -2.065869,-0.801512 -0.767645,-0.812801 -0.767645,-2.077158 0,-1.275645 0.790223,-2.15618 0.790223,-0.891823 2.15618,-0.891823 0.993423,0 1.682046,0.530579 0.688623,0.519289 0.688623,1.43369 0,0.699912 -0.440267,1.162757 -0.428978,0.451556 -1.33209,0.451556 h -2.099736 q 0.237067,1.117601 1.490135,1.117601 z m 0,-3.533426 q -0.553156,0 -0.982134,0.361245 -0.428979,0.361245 -0.541868,1.016001 h 1.806224 q 0.338667,0 0.51929,-0.169334 0.191911,-0.169333 0.191911,-0.451556 0,-0.316089 -0.282222,-0.530578 -0.270934,-0.225778 -0.711201,-0.225778 z"
         style="font-style:normal;font-variant:normal;font-weight:normal;font-stretch:normal;font-size:11.2889px;font-family:'Intelo Alt';-inkscape-font-specification:'Intelo Alt';stroke-width:0.264583"
         id="path877" />
      <path
         d="m 85.664858,26.514828 q 1.140179,0 1.817513,0.62089 0.677334,0.6096 0.677334,1.727201 v 3.443115 h -1.354668 v -0.733778 q -0.643468,0.869245 -1.828802,0.869245 -0.869246,0 -1.411113,-0.474134 -0.530578,-0.485423 -0.530578,-1.275646 0,-0.970845 0.778934,-1.411112 0.778934,-0.451556 1.975558,-0.451556 0.508,0 0.959556,0.06773 v -0.07902 q 0,-0.530578 -0.327378,-0.801512 -0.327378,-0.282223 -0.869245,-0.282223 -0.880535,0 -1.715913,0.643468 L 83.1813,27.41794 q 0.959556,-0.903112 2.483558,-0.903112 z m -0.31609,4.786494 q 0.609601,0 0.982135,-0.417689 0.372533,-0.41769 0.417689,-1.083735 -0.440267,-0.03387 -0.846667,-0.03387 -1.34338,0 -1.34338,0.824089 0,0.316089 0.21449,0.51929 0.214489,0.191911 0.575733,0.191911 z"
         style="font-style:normal;font-variant:normal;font-weight:normal;font-stretch:normal;font-size:11.2889px;font-family:'Intelo Alt';-inkscape-font-specification:'Intelo Alt';stroke-width:0.264583"
         id="path879" />
      <path
         d="m 91.365739,32.430212 q -1.467557,0 -2.35938,-0.857956 L 89.61596,30.60141 q 0.824089,0.666045 1.682046,0.666045 0.372533,0 0.620889,-0.146755 0.259645,-0.146756 0.259645,-0.406401 0,-0.09031 -0.03387,-0.169333 -0.03387,-0.07902 -0.112889,-0.146756 -0.06773,-0.06773 -0.135466,-0.112889 -0.06773,-0.04516 -0.203201,-0.1016 -0.135467,-0.05645 -0.225778,-0.07902 -0.07902,-0.03387 -0.259644,-0.09031 -0.169334,-0.05644 -0.248356,-0.07902 -0.790223,-0.270934 -1.219201,-0.632178 -0.41769,-0.361245 -0.41769,-1.016001 0,-0.835379 0.632179,-1.298224 0.643467,-0.474134 1.648179,-0.474134 1.219201,0 2.122313,0.654756 l -0.587022,0.959557 q -0.778935,-0.474134 -1.467558,-0.474134 -0.372533,0 -0.598311,0.146756 -0.225778,0.135467 -0.225778,0.361245 0,0.180622 0.169333,0.327378 0.169334,0.135467 0.304801,0.191911 0.146755,0.04516 0.519289,0.169334 0.383823,0.124177 0.564445,0.191911 0.191911,0.06773 0.508001,0.237067 0.316089,0.158044 0.462844,0.327378 0.158045,0.158045 0.282223,0.428978 0.124178,0.259645 0.124178,0.587023 0,0.846667 -0.699912,1.33209 -0.699912,0.474134 -1.715913,0.474134 z"
         style="font-style:normal;font-variant:normal;font-weight:normal;font-stretch:normal;font-size:11.2889px;font-family:'Intelo Alt';-inkscape-font-specification:'Intelo Alt';stroke-width:0.264583"
         id="path881" />
      <path
         d="m 98.330973,26.661584 h 1.569157 l -2.314224,5.791206 q -0.169334,0.417689 -0.349956,0.745067 -0.180623,0.327378 -0.451556,0.654756 -0.270934,0.338667 -0.654757,0.51929 -0.383822,0.191911 -0.846667,0.191911 -0.801512,0 -1.365957,-0.508 l 0.541867,-1.061157 q 0.338667,0.270934 0.745068,0.270934 0.598311,0 0.948267,-0.801512 l 0.146756,-0.361245 -2.167469,-5.44125 h 1.580446 l 1.33209,3.79307 z"
         style="font-style:normal;font-variant:normal;font-weight:normal;font-stretch:normal;font-size:11.2889px;font-family:'Intelo Alt';-inkscape-font-specification:'Intelo Alt';stroke-width:0.264583"
         id="path883" />
    </g>
  </g>
</svg>
